<svg width="65" height="64" viewBox="0 0 65 64" fill="none" xmlns="http://www.w3.org/2000/svg">
<path fill-rule="evenodd" clip-rule="evenodd" d="M28.7261 10.4925C37.5521 9.01235 46.0579 14.7396 47.9366 23.5784L50.9452 37.7325L58.9946 46.734C59.6348 47.4498 59.2621 48.5902 58.3227 48.7899L15.7902 57.8305C14.8497 58.0304 14.0451 57.138 14.3409 56.2232L18.0597 44.7218L15.0513 30.5683C13.174 21.7361 18.6054 13.0508 27.2591 10.8052L26.3924 6.72805L27.8597 6.41618L28.7261 10.4925ZM16.5185 30.2565C14.7605 21.9855 20.0398 13.856 28.3108 12.0979C36.5818 10.3399 44.7113 15.6192 46.4694 23.8902L49.4918 38.1095C49.5371 38.3227 49.6374 38.5204 49.7827 38.6828L57.589 47.4123L15.9011 56.2734L19.5075 45.1197C19.5748 44.9115 19.5863 44.6893 19.5408 44.4752L16.5185 30.2565Z" fill="#373737"/>
<path fill-rule="evenodd" clip-rule="evenodd" d="M27.3638 54.6025C29.911 57.6162 33.992 59.1634 38.1181 58.2864C42.2495 57.4082 45.3436 54.3328 46.4438 50.547L44.7392 50.9093C43.6142 53.8187 41.089 56.1214 37.8062 56.8192C34.5273 57.5161 31.2815 56.442 29.0684 54.2402L27.3638 54.6025Z" fill="#373737"/>
<path fill-rule="evenodd" clip-rule="evenodd" d="M54.6127 15.9891C51.5001 9.68941 45.9403 4.91757 39.1759 2.81929L37.9908 6.63971C43.7037 8.41181 48.3977 12.4404 51.0265 17.761L54.6127 15.9891ZM14.5149 8.16468C9.34451 12.8021 6.2715 19.3576 5.9038 26.3069L9.89821 26.5182C10.2111 20.6049 12.8252 15.0534 17.1857 11.1424L14.5149 8.16468Z" fill="url(#paint0_linear_6103_9847)"/>
<defs>
<linearGradient id="paint0_linear_6103_9847" x1="3.93161" y1="10.4796" x2="7.77798" y2="28.5754" gradientUnits="userSpaceOnUse">
<stop stop-color="#FFAB50"/>
<stop offset="1" stop-color="#F28815"/>
</linearGradient>
</defs>
</svg>
