<svg width="40" height="36" viewBox="0 0 40 36" fill="none" xmlns="http://www.w3.org/2000/svg">
<path fill-rule="evenodd" clip-rule="evenodd" d="M19.6285 20.1952L20.2257 18.47H18.4H14.31L14.3098 18.47C14.3088 18.4695 14.3067 18.4682 14.3042 18.4658C14.3018 18.4633 14.3005 18.4612 14.3 18.4602L14.3 18.46V17.28C14.3 17.0309 14.3523 16.7739 14.4559 16.5297L14.4564 16.5285L16.1439 12.5843L16.1444 12.5833C16.2199 12.4091 16.3913 12.3 16.57 12.3H23.1294V18.4799L22.758 18.8536L18.8026 22.8332C18.7817 22.7362 18.7864 22.632 18.8205 22.5295L19.6285 20.1952ZM24.4294 18.47H25.7V12.3H24.4294V18.47ZM14.95 12.07L13.26 16.02C13.09 16.42 13 16.85 13 17.28V18.46C13 19.18 13.59 19.77 14.31 19.77H17.0243H18.4L17.95 21.07L17.59 22.11C17.35 22.82 17.55 23.6 18.11 24.1L18.78 24.7L23.68 19.77H25.7H27V18.47V12.3V11H25.7H23.68H16.57C15.87 11 15.23 11.42 14.95 12.07Z" fill="#707070"/>
</svg>
