<svg width="40" height="36" viewBox="0 0 40 36" fill="none" xmlns="http://www.w3.org/2000/svg">
<path fill-rule="evenodd" clip-rule="evenodd" d="M20.3654 15.8013L19.7682 17.5265H21.5939H25.6809H25.6909C25.6919 17.527 25.6938 17.5282 25.696 17.5305C25.6968 17.5313 25.6975 17.532 25.698 17.5327C25.699 17.5339 25.6997 17.535 25.7 17.5356V18.7148C25.7 18.9711 25.6487 19.2175 25.5448 19.463L25.5438 19.4654L23.8475 23.4067L23.8474 23.4069L23.8473 23.4071C23.7721 23.5813 23.601 23.6903 23.4226 23.6903H16.8684V17.5165L17.2397 17.143L21.191 13.1674C21.2114 13.2637 21.2066 13.367 21.1728 13.4687L20.3654 15.8013ZM15.5684 17.5265H14.3V23.6903H15.5684V17.5265ZM25.0414 23.921L26.7402 19.9739C26.9101 19.5741 27 19.1544 27 18.7148V17.5356C27 16.8161 26.4104 16.2265 25.6909 16.2265H25.6809H22.9695H21.5939L22.0439 14.9265L22.4033 13.8882C22.6431 13.1787 22.4433 12.3993 21.8837 11.8996L21.2141 11.3L16.3176 16.2265H14.3H13V17.5265V23.6903V24.9903H14.3H23.4226C24.1221 24.9903 24.7616 24.5706 25.0414 23.921Z" fill="#707070"/>
</svg>
